<svg width="40" height="39" fill="none" xmlns="http://www.w3.org/2000/svg"><circle cx="20.177" cy="19.5" r="19.5" fill="#FFDA00"/><g clip-path="url(#clip0_205_3)"><path d="M29.117 24.815l-4.254-2.964c-.6-.414-1.476-.264-1.892.319l-1.105 1.589a1.17 1.17 0 00-.156.318c-.143.096-.399.21-.774.21-.617 0-1.673-.319-3.176-1.848-2.496-2.54-2.514-3.656-2.178-4.512a1.02 1.02 0 00.223-.136l1.526-1.175c.581-.446.697-1.316.255-1.94l-3.051-4.229c-.608-.846-1.355-.942-2.138-.259-.474.419-1.262 1.416-1.584 2.012-.183.328-.264.67-.232 1.01-1.436 5.719 2.813 10.44 4.155 11.76 3.668 3.61 7.072 4.347 9.286 4.347 1.257 0 2.165-.227 2.568-.4.313.009.63-.073.935-.26.581-.35 1.534-1.179 1.923-1.675.322-.405.452-.783.394-1.156-.054-.378-.291-.71-.725-1.011zm-.367 1.602c-.322.41-1.199 1.18-1.686 1.47-.18.11-.349.155-.51.137a.452.452 0 00-.255.05c-.188.1-1.006.378-2.281.378-2.049 0-5.211-.715-8.665-4.115-1.252-1.238-5.25-5.69-3.887-10.976a.5.5 0 00.01-.182.849.849 0 01.116-.533c.272-.5.997-1.425 1.386-1.766.166-.146.318-.228.42-.228.144 0 .31.187.421.342l3.046 4.229c.157.223.126.523-.071.674l-1.53 1.179a.282.282 0 01-.116.05.441.441 0 00-.3.25c-.649 1.434-.492 2.891 2.286 5.713 1.377 1.403 2.661 2.117 3.806 2.117.77 0 1.248-.323 1.467-.514a.446.446 0 00.148-.278.306.306 0 01.045-.123l1.1-1.588c.139-.196.447-.242.658-.096l4.253 2.959c.21.146.331.282.345.396.018.105-.054.269-.206.455z" fill="#424242" stroke="#100F0F" stroke-width=".5"/></g><defs><clipPath id="clip0_205_3"><path fill="#fff" transform="translate(10.057 8.886)" d="M0 0h20.241v21.228H0z"/></clipPath></defs></svg>